<svg id="圖層_1" data-name="圖層 1" xmlns="http://www.w3.org/2000/svg" viewBox="0 0 12.26 11.34"><defs><style>.cls-1{fill:#656565;}</style></defs><title>工作區域 61</title><path class="cls-1" d="M12.24,4.79A.25.25,0,0,0,12,4.64h-.77a5.67,5.67,0,1,0-.66,3.86A.51.51,0,0,0,9.69,8a4.65,4.65,0,1,1,.5-3.35H9.43a.25.25,0,0,0-.23.15.24.24,0,0,0,0,.27l1.29,1.55a.25.25,0,0,0,.2.09.27.27,0,0,0,.2-.09l1.29-1.55a.26.26,0,0,0,0-.27Zm0,0"/><path class="cls-1" d="M7.17,8.57a.56.56,0,0,1-.4-.17L4.84,6.48a.59.59,0,0,1-.16-.4V2.41a.56.56,0,0,1,.56-.56.57.57,0,0,1,.57.56V5.84L7.57,7.61a.56.56,0,0,1,0,.79A.58.58,0,0,1,7.17,8.57Z"/></svg>